<svg width="88" height="31" viewBox="0 0 88 31" fill="none" xmlns="http://www.w3.org/2000/svg">
<path fill-rule="evenodd" clip-rule="evenodd" d="M21.6036 10.9217L21.5232 21.8433L20.6637 23.2238C19.4822 25.1213 16.9801 26.4393 14.5602 26.4393H12.8856V28.5766V30.7143L15.3636 30.6158C17.3746 30.5362 18.1455 30.3694 19.4536 29.7315C21.8446 28.5654 23.6543 26.8046 24.8658 24.4653L25.9128 22.4439V11.2218V0H23.7984H21.6838L21.6036 10.9217ZM8.35439 0.663795C5.10836 1.54135 2.29902 3.79122 0.813633 6.70292C0.079013 8.14273 0 8.57026 0 11.1101C0 13.5791 0.0934557 14.1211 0.765489 15.5452C1.19793 16.4615 2.21179 17.8437 3.09509 18.7213C7.73759 23.3318 14.3537 23.2705 18.9659 18.5736L20.0905 17.4285L18.6161 15.9645L17.1421 14.5005L15.9164 15.6954C14.6437 16.9358 12.3455 18.0012 10.9423 18.0012C10.2096 18.0012 8.4065 17.5214 8.07714 17.2387C8.00266 17.1748 10.7426 14.4209 14.1659 11.1191L20.3904 5.116L19.1443 3.84045C16.3466 0.976565 11.9669 -0.313052 8.35439 0.663795ZM34.8095 0.946751C32.7648 1.70196 31.7521 2.38122 30.3134 3.9628C27.1458 7.44491 26.7511 12.8692 29.3684 16.9535C30.4423 18.6296 31.9367 19.9141 34.0485 20.9762L35.6832 21.7983L42.6924 21.8903L49.7016 21.9823V15.8022C49.7016 10.4278 49.6282 9.38932 49.14 7.83474C47.3156 2.02992 40.608 -1.19427 34.8095 0.946751ZM57.8101 0.97319C54.949 2.14158 52.1042 5.06172 51.4104 7.54307C51.2498 8.11686 51.1201 11.6201 51.1193 15.3995L51.1176 22.2202H53.2416H55.3656V15.9468C55.3656 9.75272 55.3749 9.65512 56.1027 8.20405C57.3097 5.79892 59.6637 4.41395 62.5164 4.43139L64.1448 4.44124V2.36125V0.281269L61.8084 0.288019C59.9979 0.293082 59.0979 0.447217 57.8101 0.97319ZM73.632 0.659575C70.5134 1.68621 68.1254 3.68828 66.7836 6.40196C66.0552 7.87525 65.9856 8.28618 65.9856 11.1101C65.9856 13.9712 66.0479 14.3261 66.8125 15.8259C67.8436 17.8482 70.1514 20.0466 72.2859 21.04C73.8925 21.7877 74.0106 21.7997 80.7456 21.8903L87.5764 21.9823L87.7806 16.6868C88.0559 9.54795 87.6503 7.36278 85.5456 4.64319C84.276 3.00283 83.4729 2.35647 81.4559 1.35093C79.9142 0.582226 79.2948 0.439342 77.2079 0.369025C75.7152 0.318678 74.3241 0.431748 73.632 0.659575ZM41.4115 5.10925C42.8 5.75898 43.9073 6.96253 44.6566 8.63692C45.1084 9.6464 45.1746 10.4109 45.1075 13.8404L45.0288 17.8606L43.0968 17.9441C42.0342 17.9902 40.0235 17.9014 38.6285 17.7467C36.6115 17.5231 35.8491 17.3034 34.9058 16.6739C32.3887 14.995 31.2352 11.5503 32.2802 8.83269C33.1936 6.45709 34.9061 4.99224 37.3331 4.51015C38.7828 4.22213 39.8499 4.37879 41.4115 5.10925ZM79.8624 5.33033C81.4576 6.19692 82.9209 8.25412 83.2197 10.0503C83.4505 11.437 83.4457 16.5459 83.2129 17.41L83.0311 18.0847L79.1144 17.9078C74.8565 17.7154 73.888 17.4527 72.2853 16.0551C68.8609 13.0689 69.521 7.26321 73.5224 5.18041C75.6667 4.06405 77.6163 4.11018 79.8624 5.33033ZM13.3761 5.03837C13.5981 5.15397 12.0878 6.84383 9.22382 9.68409L4.72292 14.1478L4.41622 13.0509C3.92572 11.2966 4.05174 10.0523 4.8852 8.42007C5.78577 6.65567 7.33176 5.45184 9.3943 4.90758C10.68 4.56837 12.5942 4.63137 13.3761 5.03837Z" fill="#8758FF"/>
</svg>
