<svg width="72" height="72" viewBox="0 0 72 72" fill="none" xmlns="http://www.w3.org/2000/svg">
<path d="M33.4477 19.5135C33.9984 18.7724 36.0031 16.1066 39.4396 15.7526C41.0808 15.5756 42.4246 15.996 43.1956 16.3057C42.9533 16.0845 42.5788 15.7969 42.0611 15.5867C41.3121 15.2659 40.6402 15.2548 40.2547 15.277C41.0698 15.0226 42.4246 14.7128 44.0768 14.9119C45.9493 15.1332 47.216 15.8964 48.2514 16.5158C50.7737 18.0202 52.1726 19.9338 52.8555 20.8962C53.4943 21.7922 53.9459 22.5996 54.2433 23.197C53.7917 22.9094 53.2851 22.6218 53.1859 22.7213C53.0427 22.8872 53.8358 23.9049 54.5958 24.6239C56.5124 26.449 58.0985 26.1836 60.6208 27.876C61.7113 28.606 62.5043 29.3361 62.989 29.8117C61.2487 29.2586 60.0921 29.4467 59.3321 29.7564C58.7263 29.9998 58.0985 30.4312 57.2393 30.3095C56.6776 30.2321 56.237 29.9445 55.9506 29.7011C55.5871 29.5573 55.2347 29.5794 55.0694 29.7564C54.8602 29.9887 55.0033 30.409 55.0805 30.6081C55.455 31.67 56.5784 32.2121 56.964 32.378C57.8561 32.7651 58.1756 32.7098 59.2881 33.1302C59.6626 33.274 59.9159 33.4731 60.0701 33.7054C60.5768 34.4354 60.3124 35.4199 60.2353 35.7185C60.2353 35.7185 60.004 36.5481 59.4202 37.1786C57.5808 39.1918 52.1506 39.2361 48.5488 41.5479C47.8879 41.9683 47.0728 42.6098 46.6432 43.6828C46.3018 44.5235 46.3348 45.3199 46.4009 45.7955C45.8722 45.6075 43.9887 44.8885 42.7881 42.8642C41.3231 40.3975 42.0171 37.8976 42.1382 37.4773C41.5875 37.6985 40.8826 38.0636 40.2217 38.683C38.3492 40.4197 38.184 42.82 38.1619 43.4616C37.1596 41.9351 35.981 39.7781 35.0778 37.0348C34.0975 34.0372 33.8111 31.3935 33.745 29.4688C33.4366 29.9334 33.0952 30.5307 32.8198 31.2386C32.2581 32.6545 32.1589 33.9376 32.1589 34.8004C31.3328 32.3005 30.6279 28.7166 31.3989 24.7013C31.6853 23.1859 32.0598 21.3608 33.4477 19.5135ZM46.7864 25.3097C47.7337 25.7743 48.6809 26.2389 49.6172 26.7034C48.8682 25.354 48.0531 24.4248 47.4363 23.8275C46.8635 23.2744 46.5771 22.9868 46.0925 22.7656C44.7597 22.1572 43.3608 22.5112 42.4576 22.7988C41.7858 23.02 41.1469 23.3518 40.486 23.6394C40.497 23.7722 40.5081 23.9049 40.5081 24.0376C41.1689 24.4248 42.1713 24.9004 43.482 25.177C44.8478 25.4646 46.0154 25.4093 46.7864 25.3097Z" fill="#8758FF"/>
<path d="M54.8274 47.3994C55.1248 47.8308 55.4662 48.406 55.7416 49.1139C56.072 49.9435 56.2262 50.6846 56.2923 51.2598C56.6448 51.0054 57.2065 50.5408 57.6802 49.7776C58.1318 49.0475 58.308 48.3507 58.3741 47.9303C58.5724 48.0963 58.8477 48.3617 59.0901 48.7489C59.3875 49.2466 59.4866 49.7112 59.5196 49.9878C60.6101 48.4945 61.1608 47.1007 61.4582 46.1716C61.8217 45.0212 62.2402 43.6827 61.9098 42.0567C61.7776 41.4262 61.5133 40.1209 60.4999 39.6011C59.9712 39.3356 59.4425 39.3798 59.1011 39.4241C56.9532 39.7117 55.7857 40.7293 53.5607 41.6695C52.0957 42.289 49.5624 43.1407 48.8244 44.1584C48.7583 44.2579 48.56 44.5345 48.516 44.9216C48.4499 45.5411 48.8024 46.0388 48.9456 46.249C49.1328 46.5145 49.4743 46.8795 51.1265 47.6649C52.305 48.2179 52.5584 48.229 52.9329 48.6051C53.4726 49.136 53.6598 49.8218 53.7479 50.3085C53.9572 50.0209 54.2106 49.6227 54.4088 49.125C54.7062 48.4502 54.7943 47.8308 54.8274 47.3994Z" fill="#8758FF"/>
<path d="M44.7928 49.136C45.3765 50.8948 46.1255 53.9477 45.8171 57.7639C45.4977 61.7571 44.1539 64.7658 43.2617 66.425C44.0438 66.1706 48.9233 64.4893 50.8839 59.5227C51.8311 57.1334 51.721 54.9433 51.5558 53.7376C51.3795 54.3902 51.1152 55.1645 50.7076 55.983C50.201 57.0228 49.6282 57.8414 49.1325 58.4608C49.3969 57.775 49.7604 56.5582 49.6833 55.0096C49.6172 53.5938 49.2096 52.4987 48.9122 51.8571C48.9012 52.2664 48.8572 52.7641 48.736 53.3172C48.5818 54.0141 48.3615 54.5893 48.1412 55.0207C48.0201 54.2685 47.7447 53.1181 47.0618 51.8792C46.3238 50.5297 45.3986 49.6338 44.7928 49.136Z" fill="#8758FF"/>
<path d="M26.1895 19.7568C26.6191 19.8895 27.0927 20.0665 27.5774 20.2877C27.8968 20.4315 28.1832 20.5753 28.4586 20.7191C28.3925 20.5311 28.3374 20.3098 28.2933 20.0665C28.2603 19.8895 28.2383 19.7125 28.2273 19.5577C28.3594 19.5908 28.5026 19.624 28.6568 19.6793C28.8661 19.7457 29.0644 19.8342 29.2296 19.9116C29.0093 19.4802 28.7119 18.9825 28.3154 18.4404C27.8968 17.8542 27.6545 17.5334 27.2359 17.2016C26.553 16.6817 25.8591 16.5268 25.6278 16.4936C25.2203 16.4162 23.7773 16.1507 23.0944 16.9914C22.6649 17.5334 22.7199 18.3077 22.753 18.7502C22.764 18.8497 22.786 19.2258 22.9512 19.7015C23.1715 20.3209 23.4909 20.7523 23.7883 21.1173C24.6255 22.135 25.5507 23.0088 26.0904 23.4845C25.9362 23.2522 25.7379 22.9093 25.6058 22.4447C25.5287 22.146 25.4956 21.8916 25.4956 21.6815C25.7269 21.6483 26.0574 21.6372 26.4539 21.7146C26.9275 21.8142 27.28 22.0022 27.4893 22.135C27.3241 21.7589 27.1258 21.3607 26.8945 20.9403C26.6742 20.4979 26.4319 20.1107 26.1895 19.7568Z" fill="#8758FF"/>
<path d="M62.2292 37.3778C62.4495 36.7141 62.868 34.2031 63.0002 33.3846C63.0002 33.1412 62.9231 32.9421 62.7909 32.8979C62.6147 32.8426 62.3944 33.097 62.2843 33.2297C62.086 33.4731 61.9208 33.7828 61.7335 34.6677C61.6344 35.1323 61.5683 35.4752 61.5463 35.9619C61.5353 36.3159 61.5353 36.7805 61.7335 37.2893C61.8877 37.6764 61.9869 37.6875 62.0089 37.6875C62.053 37.6875 62.1411 37.6654 62.2292 37.3778Z" fill="#8758FF"/>
<path d="M50.3772 15.7526C48.4166 13.0315 44.925 9.06042 39.5168 6.53841C35.7388 4.7907 33.0402 4.68009 32.4454 4.66902C29.163 4.58053 26.5856 5.54288 25.1537 6.20657C25.6824 6.12914 26.3873 6.08489 27.2134 6.18444C27.9073 6.27293 28.4801 6.43886 28.9317 6.60478C27.2024 6.58266 22.1356 6.72645 17.2672 10.2882C13.4561 13.0868 11.6827 16.5712 10.9778 18.2304C11.5395 17.7437 12.2665 17.2017 13.1477 16.6928C14.106 16.1398 14.9981 15.7747 15.7361 15.5314C14.15 17.091 11.5285 20.0776 9.83227 24.5907C9.42472 25.6637 7.84963 30.0993 8.37833 36.0172C8.92906 42.2337 11.5175 46.7357 13.0045 48.937C12.8283 48.3839 12.63 47.5211 12.652 46.4703C12.6851 45.3309 12.9604 44.435 13.1807 43.8708C13.8306 46.2933 15.604 51.5585 20.4945 55.9057C22.9838 58.118 25.5061 59.4232 27.3896 60.1754C27.0372 59.7551 26.4093 58.8702 26.167 57.5981C26.0128 56.7795 26.0679 56.0716 26.145 55.596C26.4203 56.1822 26.8389 57.0118 27.4888 57.9189C28.7995 59.7772 30.2204 60.8502 31.1236 61.5249C35.0558 64.4562 40.8165 66.1265 41.7858 66.403C42.4797 65.0646 43.5041 62.6311 43.6363 59.4343C43.8015 55.5075 42.5238 52.6315 42.2044 51.9568C40.9928 49.3684 39.1974 47.322 39.1092 47.2114C38.7237 46.791 37.5782 45.5632 36.4217 44.0589C36.1683 43.7381 35.7498 43.1629 35.2761 42.3886C35.166 42.2116 34.7364 41.4816 34.439 40.8179C34.1306 40.1321 33.668 38.8268 33.646 36.88C32.919 38.7715 32.941 40.1763 33.1283 41.1276C33.2494 41.7802 33.4918 42.466 33.4367 43.5279C33.3926 44.4571 33.1503 45.2093 32.952 45.707C32.2361 44.8995 31.3329 43.7934 30.4187 42.3997C28.6123 39.6675 27.687 37.2561 27.3015 36.1721C26.7508 34.5792 26.1119 32.3005 25.8256 29.4799C25.3189 30.1104 24.7351 30.951 24.2394 32.024C23.4684 33.6832 23.2261 35.1876 23.138 36.2163C22.8406 35.8513 20.5936 33.0417 21.4638 29.69C21.7942 28.4069 22.4551 27.4888 22.9507 26.9247C22.4 26.9357 21.3426 27.0353 20.2081 27.6658C19.2498 28.1967 18.644 28.8715 18.3246 29.2918C18.2805 28.96 18.0382 26.9689 19.4481 25.2212C20.9571 23.3408 23.149 23.2523 23.4574 23.2523C23.0939 22.9868 21.7171 21.9028 21.2875 19.9117C20.869 17.987 21.5959 16.4495 21.9154 15.8853C22.6093 14.6465 23.5786 14.0049 24.2394 13.5846C25.44 12.8213 26.5856 12.5116 27.3236 12.3678C27.1693 12.589 26.8609 13.1089 26.8059 13.8279C26.7618 14.4363 26.916 14.9009 27.0151 15.1553C27.2685 14.6907 27.7752 13.9275 28.6784 13.2748C29.8569 12.4231 31.0465 12.2461 31.5972 12.1908C32.7318 12.0913 34.3068 12.0913 36.1133 12.5005C37.2037 12.7549 38.14 13.0979 38.889 13.4408C38.5145 13.0536 38.0959 12.6554 37.6443 12.2572C37.2808 11.9364 36.9283 11.6488 36.5759 11.3723C37.5672 11.317 39.0211 11.3501 40.6954 11.8037C42.2484 12.224 43.449 12.8656 44.2531 13.3744L43.1847 11.328C44.0548 11.693 44.9911 12.1355 45.9604 12.6775C47.7447 13.7062 49.2097 14.7681 50.3772 15.7526Z" fill="#8758FF"/>
</svg>
